<?xml version="1.0" standalone="no"?>
<?xml-stylesheet href="sp-styles.css" type="text/css"?>
<svg xmlns:xlink="http://www.w3.org/1999/xlink" xmlns="http://www.w3.org/2000/svg" style="overflow-x: hidden; overflow-y: hidden; " width="800" height="600"><defs><clipPath id="c3-1485432649695-clip"><rect width="728" height="566"></rect></clipPath><clipPath id="c3-1485432649695-clip-xaxis"><rect x="-71" y="-20" width="830" height="50"></rect></clipPath><clipPath id="c3-1485432649695-clip-yaxis"><rect x="-69" y="-4" width="90" height="590"></rect></clipPath><clipPath id="c3-1485432649695-clip-grid"><rect width="728" height="566"></rect></clipPath><clipPath id="c3-1485432649695-clip-subchart"><rect width="728"></rect></clipPath></defs><g transform="translate(70.5,4.5)"><text class="c3-text c3-empty" text-anchor="middle" dominant-baseline="middle" x="364" y="283" style="opacity: 0.985952768; "></text><rect class="c3-zoom-rect" width="728" height="566" style="opacity: 0; "></rect><g clip-path="url(file:///htdocs/ugmk/plugins/chart/export.html#c3-1485432649695-clip)" class="c3-regions" style="visibility: visible; "></g><g clip-path="url(file:///htdocs/ugmk/plugins/chart/export.html#c3-1485432649695-clip-grid)" class="c3-grid" style="visibility: visible; "><g class="c3-xgrids"><line class="c3-xgrid" x1="146" x2="146" y1="0" y2="566" style="opacity: 1; "></line><line class="c3-xgrid" x1="292" x2="292" y1="0" y2="566" style="opacity: 1; "></line><line class="c3-xgrid" x1="438" x2="438" y1="0" y2="566" style="opacity: 1; "></line><line class="c3-xgrid" x1="583" x2="583" y1="0" y2="566" style="opacity: 1; "></line><line class="c3-xgrid" x1="729" x2="729" y1="0" y2="566" style="opacity: 1; "></line><line class="c3-xgrid" x1="874" x2="874" y1="0" y2="566" style="opacity: 1; "></line></g><g class="c3-ygrids"><line class="c3-ygrid" x1="0" x2="728" y1="505" y2="505"></line><line class="c3-ygrid" x1="0" x2="728" y1="458" y2="458"></line><line class="c3-ygrid" x1="0" x2="728" y1="411" y2="411"></line><line class="c3-ygrid" x1="0" x2="728" y1="363" y2="363"></line><line class="c3-ygrid" x1="0" x2="728" y1="316" y2="316"></line><line class="c3-ygrid" x1="0" x2="728" y1="268" y2="268"></line><line class="c3-ygrid" x1="0" x2="728" y1="221" y2="221"></line><line class="c3-ygrid" x1="0" x2="728" y1="174" y2="174"></line><line class="c3-ygrid" x1="0" x2="728" y1="126" y2="126"></line><line class="c3-ygrid" x1="0" x2="728" y1="79" y2="79"></line><line class="c3-ygrid" x1="0" x2="728" y1="31" y2="31"></line><line class="c3-ygrid" x1="0" x2="728" y1="-16" y2="-16"></line><line class="c3-ygrid" x1="0" x2="728" y1="-63" y2="-63"></line><line class="c3-ygrid" x1="0" x2="728" y1="-111" y2="-111"></line><line class="c3-ygrid" x1="0" x2="728" y1="-158" y2="-158"></line><line class="c3-ygrid" x1="0" x2="728" y1="-206" y2="-206"></line><line class="c3-ygrid" x1="0" x2="728" y1="-253" y2="-253"></line><line class="c3-ygrid" x1="0" x2="728" y1="-300" y2="-300"></line><line class="c3-ygrid" x1="0" x2="728" y1="-348" y2="-348"></line><line class="c3-ygrid" x1="0" x2="728" y1="-395" y2="-395"></line><line class="c3-ygrid" x1="0" x2="728" y1="-442" y2="-442"></line><line class="c3-ygrid" x1="0" x2="728" y1="-490" y2="-490"></line><line class="c3-ygrid" x1="0" x2="728" y1="-537" y2="-537"></line><line class="c3-ygrid" x1="0" x2="728" y1="-585" y2="-585"></line><line class="c3-ygrid" x1="0" x2="728" y1="-632" y2="-632"></line><line class="c3-ygrid" x1="0" x2="728" y1="-679" y2="-679"></line><line class="c3-ygrid" x1="0" x2="728" y1="-727" y2="-727"></line><line class="c3-ygrid" x1="0" x2="728" y1="-774" y2="-774"></line><line class="c3-ygrid" x1="0" x2="728" y1="-822" y2="-822"></line><line class="c3-ygrid" x1="0" x2="728" y1="-869" y2="-869"></line><line class="c3-ygrid" x1="0" x2="728" y1="-916" y2="-916"></line><line class="c3-ygrid" x1="0" x2="728" y1="-964" y2="-964"></line><line class="c3-ygrid" x1="0" x2="728" y1="-1011" y2="-1011"></line><line class="c3-ygrid" x1="0" x2="728" y1="-1058" y2="-1058"></line><line class="c3-ygrid" x1="0" x2="728" y1="-1106" y2="-1106"></line><line class="c3-ygrid" x1="0" x2="728" y1="-1153" y2="-1153"></line><line class="c3-ygrid" x1="0" x2="728" y1="-1201" y2="-1201"></line><line class="c3-ygrid" x1="0" x2="728" y1="-1248" y2="-1248"></line><line class="c3-ygrid" x1="0" x2="728" y1="-1295" y2="-1295"></line><line class="c3-ygrid" x1="0" x2="728" y1="-1343" y2="-1343"></line><line class="c3-ygrid" x1="0" x2="728" y1="-1390" y2="-1390"></line><line class="c3-ygrid" x1="0" x2="728" y1="-1438" y2="-1438"></line><line class="c3-ygrid" x1="0" x2="728" y1="-1485" y2="-1485"></line><line class="c3-ygrid" x1="0" x2="728" y1="-1532" y2="-1532"></line><line class="c3-ygrid" x1="0" x2="728" y1="-1580" y2="-1580"></line><line class="c3-ygrid" x1="0" x2="728" y1="-1627" y2="-1627"></line><line class="c3-ygrid" x1="0" x2="728" y1="-1675" y2="-1675"></line><line class="c3-ygrid" x1="0" x2="728" y1="-1722" y2="-1722"></line><line class="c3-ygrid" x1="0" x2="728" y1="-1769" y2="-1769"></line><line class="c3-ygrid" x1="0" x2="728" y1="-1817" y2="-1817"></line><line class="c3-ygrid" x1="0" x2="728" y1="-1864" y2="-1864"></line><line class="c3-ygrid" x1="0" x2="728" y1="-1911" y2="-1911"></line><line class="c3-ygrid" x1="0" x2="728" y1="-1959" y2="-1959"></line><line class="c3-ygrid" x1="0" x2="728" y1="-2006" y2="-2006"></line><line class="c3-ygrid" x1="0" x2="728" y1="-2054" y2="-2054"></line><line class="c3-ygrid" x1="0" x2="728" y1="-2101" y2="-2101"></line><line class="c3-ygrid" x1="0" x2="728" y1="-2148" y2="-2148"></line><line class="c3-ygrid" x1="0" x2="728" y1="-2196" y2="-2196"></line><line class="c3-ygrid" x1="0" x2="728" y1="-2243" y2="-2243"></line><line class="c3-ygrid" x1="0" x2="728" y1="-2291" y2="-2291"></line><line class="c3-ygrid" x1="0" x2="728" y1="-2338" y2="-2338"></line><line class="c3-ygrid" x1="0" x2="728" y1="-2385" y2="-2385"></line><line class="c3-ygrid" x1="0" x2="728" y1="-2433" y2="-2433"></line><line class="c3-ygrid" x1="0" x2="728" y1="-2480" y2="-2480"></line><line class="c3-ygrid" x1="0" x2="728" y1="-2528" y2="-2528"></line><line class="c3-ygrid" x1="0" x2="728" y1="-2575" y2="-2575"></line><line class="c3-ygrid" x1="0" x2="728" y1="-2622" y2="-2622"></line><line class="c3-ygrid" x1="0" x2="728" y1="-2670" y2="-2670"></line><line class="c3-ygrid" x1="0" x2="728" y1="-2717" y2="-2717"></line><line class="c3-ygrid" x1="0" x2="728" y1="-2764" y2="-2764"></line><line class="c3-ygrid" x1="0" x2="728" y1="-2812" y2="-2812"></line><line class="c3-ygrid" x1="0" x2="728" y1="-2859" y2="-2859"></line><line class="c3-ygrid" x1="0" x2="728" y1="-2907" y2="-2907"></line><line class="c3-ygrid" x1="0" x2="728" y1="-2954" y2="-2954"></line><line class="c3-ygrid" x1="0" x2="728" y1="-3001" y2="-3001"></line><line class="c3-ygrid" x1="0" x2="728" y1="-3049" y2="-3049"></line><line class="c3-ygrid" x1="0" x2="728" y1="-3096" y2="-3096"></line><line class="c3-ygrid" x1="0" x2="728" y1="-3144" y2="-3144"></line><line class="c3-ygrid" x1="0" x2="728" y1="-3191" y2="-3191"></line><line class="c3-ygrid" x1="0" x2="728" y1="-3238" y2="-3238"></line><line class="c3-ygrid" x1="0" x2="728" y1="-3286" y2="-3286"></line><line class="c3-ygrid" x1="0" x2="728" y1="-3333" y2="-3333"></line><line class="c3-ygrid" x1="0" x2="728" y1="-3381" y2="-3381"></line><line class="c3-ygrid" x1="0" x2="728" y1="-3428" y2="-3428"></line><line class="c3-ygrid" x1="0" x2="728" y1="-3475" y2="-3475"></line><line class="c3-ygrid" x1="0" x2="728" y1="-3523" y2="-3523"></line><line class="c3-ygrid" x1="0" x2="728" y1="-3570" y2="-3570"></line><line class="c3-ygrid" x1="0" x2="728" y1="-3617" y2="-3617"></line><line class="c3-ygrid" x1="0" x2="728" y1="-3665" y2="-3665"></line><line class="c3-ygrid" x1="0" x2="728" y1="-3712" y2="-3712"></line><line class="c3-ygrid" x1="0" x2="728" y1="-3760" y2="-3760"></line><line class="c3-ygrid" x1="0" x2="728" y1="-3807" y2="-3807"></line><line class="c3-ygrid" x1="0" x2="728" y1="-3854" y2="-3854"></line><line class="c3-ygrid" x1="0" x2="728" y1="-3902" y2="-3902"></line><line class="c3-ygrid" x1="0" x2="728" y1="-3949" y2="-3949"></line><line class="c3-ygrid" x1="0" x2="728" y1="-3997" y2="-3997"></line><line class="c3-ygrid" x1="0" x2="728" y1="-4044" y2="-4044"></line><line class="c3-ygrid" x1="0" x2="728" y1="-4091" y2="-4091"></line><line class="c3-ygrid" x1="0" x2="728" y1="-4139" y2="-4139"></line><line class="c3-ygrid" x1="0" x2="728" y1="-4186" y2="-4186"></line></g><g class="c3-xgrid-focus"><line class="c3-xgrid-focus" x1="-10" x2="-10" y1="0" y2="566" style="visibility: hidden; "></line></g></g><g clip-path="url(file:///htdocs/ugmk/plugins/chart/export.html#c3-1485432649695-clip)" class="c3-chart"><g class="c3-event-rects c3-event-rects-single" style="fill-opacity: 0; "><rect class=" c3-event-rect c3-event-rect-0" x="0" y="0" width="146" height="566"></rect><rect class=" c3-event-rect c3-event-rect-1" x="146" y="0" width="146" height="566"></rect><rect class=" c3-event-rect c3-event-rect-2" x="292" y="0" width="146" height="566"></rect><rect class=" c3-event-rect c3-event-rect-3" x="437" y="0" width="146" height="566"></rect><rect class=" c3-event-rect c3-event-rect-4" x="583" y="0" width="146" height="566"></rect></g><g class="c3-chart-bars"><g class="c3-chart-bar c3-target c3-target-Прибыль-от-продаж" style="pointer-events: none; opacity: 0.45835568513119535; "><g class=" c3-shapes c3-shapes-Прибыль-от-продаж c3-bars c3-bars-Прибыль-от-продаж" style="cursor: pointer; "><path class=" c3-shape c3-shape-0 c3-bar c3-bar-0" style="stroke: #f6bb42; fill: #f6bb42; opacity: 1; " d="M 29.200000000000003,220.47644566015515 L29.200000000000003,220.47644566015515 L58.400000000000006,220.47644566015515 L58.400000000000006,220.47644566015515 z"></path><path class=" c3-shape c3-shape-1 c3-bar c3-bar-1" style="stroke: #f6bb42; fill: #f6bb42; opacity: 1; " d="M 175.2,220.47644566015515 L175.2,381.5294792440795 L204.39999999999998,381.5294792440795 L204.39999999999998,220.47644566015515 z"></path><path class=" c3-shape c3-shape-2 c3-bar c3-bar-2" style="stroke: #f6bb42; fill: #f6bb42; opacity: 1; " d="M 321.2,220.47644566015515 L321.2,371.94574780328077 L350.4,371.94574780328077 L350.4,220.47644566015515 z"></path><path class=" c3-shape c3-shape-3 c3-bar c3-bar-3" style="stroke: #f6bb42; fill: #f6bb42; opacity: 1; " d="M 466.2,220.47644566015515 L466.2,86.11560159689283 L495.4,86.11560159689283 L495.4,220.47644566015515 z"></path><path class=" c3-shape c3-shape-4 c3-bar c3-bar-4" style="stroke: #f6bb42; fill: #f6bb42; opacity: 1; " d="M 612.2,220.47644566015515 L612.2,220.47644566015515 L641.4000000000001,220.47644566015515 L641.4000000000001,220.47644566015515 z"></path></g></g><g class="c3-chart-bar c3-target c3-target-Чистая-прибыль" style="pointer-events: none; opacity: 0.45835568513119535; "><g class=" c3-shapes c3-shapes-Чистая-прибыль c3-bars c3-bars-Чистая-прибыль" style="cursor: pointer; "><path class=" c3-shape c3-shape-0 c3-bar c3-bar-0" style="stroke: #a0d468; fill: #a0d468; opacity: 1; " d="M 58.4,220.47644566015515 L58.4,220.47644566015515 L87.6,220.47644566015515 L87.6,220.47644566015515 z"></path><path class=" c3-shape c3-shape-1 c3-bar c3-bar-1" style="stroke: #a0d468; fill: #a0d468; opacity: 1; " d="M 204.4,220.47644566015515 L204.4,507.7566619915848 L233.6,507.7566619915848 L233.6,220.47644566015515 z"></path><path class=" c3-shape c3-shape-2 c3-bar c3-bar-2" style="stroke: #a0d468; fill: #a0d468; opacity: 1; " d="M 350.4,220.47644566015515 L350.4,469.2378711275678 L379.59999999999997,469.2378711275678 L379.59999999999997,220.47644566015515 z"></path><path class=" c3-shape c3-shape-3 c3-bar c3-bar-3" style="stroke: #a0d468; fill: #a0d468; opacity: 1; " d="M 495.4,220.47644566015515 L495.4,239.22642103189577 L524.6,239.22642103189577 L524.6,220.47644566015515 z"></path><path class=" c3-shape c3-shape-4 c3-bar c3-bar-4" style="stroke: #a0d468; fill: #a0d468; opacity: 1; " d="M 641.4,220.47644566015515 L641.4,220.47644566015515 L670.6,220.47644566015515 L670.6,220.47644566015515 z"></path></g></g><g class="c3-chart-bar c3-target c3-target-EBITDA" style="pointer-events: none; opacity: 0.45835568513119535; "><g class=" c3-shapes c3-shapes-EBITDA c3-bars c3-bars-EBITDA" style="cursor: pointer; "><path class=" c3-shape c3-shape-0 c3-bar c3-bar-0" style="stroke: #4fc1e9; fill: #4fc1e9; opacity: 1; " d="M 87.6,220.47644566015515 L87.6,220.47644566015515 L116.8,220.47644566015515 L116.8,220.47644566015515 z"></path><path class=" c3-shape c3-shape-1 c3-bar c3-bar-1" style="stroke: #4fc1e9; fill: #4fc1e9; opacity: 1; " d="M 233.6,220.47644566015515 L233.6,337.91601389825723 L262.8,337.91601389825723 L262.8,220.47644566015515 z"></path><path class=" c3-shape c3-shape-2 c3-bar c3-bar-2" style="stroke: #4fc1e9; fill: #4fc1e9; opacity: 1; " d="M 379.6,220.47644566015515 L379.6,342.03781453473215 L408.8,342.03781453473215 L408.8,220.47644566015515 z"></path><path class=" c3-shape c3-shape-3 c3-bar c3-bar-3" style="stroke: #4fc1e9; fill: #4fc1e9; opacity: 1; " d="M 524.6,220.47644566015515 L524.6,171.01341638507964 L553.8000000000001,171.01341638507964 L553.8000000000001,220.47644566015515 z"></path><path class=" c3-shape c3-shape-4 c3-bar c3-bar-4" style="stroke: #4fc1e9; fill: #4fc1e9; opacity: 1; " d="M 670.6,220.47644566015515 L670.6,220.47644566015515 L699.8000000000001,220.47644566015515 L699.8000000000001,220.47644566015515 z"></path></g></g></g><g class="c3-chart-lines"><g class="c3-chart-line c3-target c3-target-Прибыль-от-продаж" style="pointer-events: none; opacity: 0.45835568513119535; "><g class=" c3-shapes c3-shapes-Прибыль-от-продаж c3-lines c3-lines-Прибыль-от-продаж"></g><g class=" c3-shapes c3-shapes-Прибыль-от-продаж c3-areas c3-areas-Прибыль-от-продаж"></g><g class=" c3-selected-circles c3-selected-circles-Прибыль-от-продаж"></g><g class=" c3-shapes c3-shapes-Прибыль-от-продаж c3-circles c3-circles-Прибыль-от-продаж" style="cursor: pointer; "></g></g><g class="c3-chart-line c3-target c3-target-Чистая-прибыль" style="pointer-events: none; opacity: 0.45835568513119535; "><g class=" c3-shapes c3-shapes-Чистая-прибыль c3-lines c3-lines-Чистая-прибыль"></g><g class=" c3-shapes c3-shapes-Чистая-прибыль c3-areas c3-areas-Чистая-прибыль"></g><g class=" c3-selected-circles c3-selected-circles-Чистая-прибыль"></g><g class=" c3-shapes c3-shapes-Чистая-прибыль c3-circles c3-circles-Чистая-прибыль" style="cursor: pointer; "></g></g><g class="c3-chart-line c3-target c3-target-EBITDA" style="pointer-events: none; opacity: 0.45835568513119535; "><g class=" c3-shapes c3-shapes-EBITDA c3-lines c3-lines-EBITDA"></g><g class=" c3-shapes c3-shapes-EBITDA c3-areas c3-areas-EBITDA"></g><g class=" c3-selected-circles c3-selected-circles-EBITDA"></g><g class=" c3-shapes c3-shapes-EBITDA c3-circles c3-circles-EBITDA" style="cursor: pointer; "></g></g></g><g class="c3-chart-arcs" transform="translate(364,278)"><text class="c3-chart-arcs-title" style="text-anchor: middle; opacity: 0; "></text></g><g class="c3-chart-texts"><g class="c3-chart-text c3-target c3-target-Прибыль-от-продаж" style="pointer-events: none; opacity: 0.45835568513119535; "><g class=" c3-texts c3-texts-Прибыль-от-продаж"><text class=" c3-text c3-text-0" text-anchor="middle" style="fill-opacity: 1; fill: #000000; stroke: #ffffff; stroke-width: 1px; stroke-linecap: round; stroke-opacity: 0.65; font-size: 1.5em; font-weight: bold; stroke-linejoin: bevel; " x="43.800000000000004" y="217.47644566015515"></text><text class=" c3-text c3-text-1" text-anchor="middle" style="fill-opacity: 1; fill: #000000; stroke: #ffffff; stroke-width: 1px; stroke-linecap: round; stroke-opacity: 0.65; font-size: 1.5em; font-weight: bold; stroke-linejoin: bevel; " x="189.79999999999998" y="391.5294792440795">-339861</text><text class=" c3-text c3-text-2" text-anchor="middle" style="fill-opacity: 1; fill: #000000; stroke: #ffffff; stroke-width: 1px; stroke-linecap: round; stroke-opacity: 0.65; font-size: 1.5em; font-weight: bold; stroke-linejoin: bevel; " x="335.79999999999995" y="381.94574780328077">-319637</text><text class=" c3-text c3-text-3" text-anchor="middle" style="fill-opacity: 1; fill: #000000; stroke: #ffffff; stroke-width: 1px; stroke-linecap: round; stroke-opacity: 0.65; font-size: 1.5em; font-weight: bold; stroke-linejoin: bevel; " x="480.79999999999995" y="83.11560159689283">283534</text><text class=" c3-text c3-text-4" text-anchor="middle" style="fill-opacity: 1; fill: #000000; stroke: #ffffff; stroke-width: 1px; stroke-linecap: round; stroke-opacity: 0.65; font-size: 1.5em; font-weight: bold; stroke-linejoin: bevel; " x="626.8000000000001" y="217.47644566015515">0</text></g></g><g class="c3-chart-text c3-target c3-target-Чистая-прибыль" style="pointer-events: none; opacity: 0.45835568513119535; "><g class=" c3-texts c3-texts-Чистая-прибыль"><text class=" c3-text c3-text-0" text-anchor="middle" style="fill-opacity: 1; fill: #000000; stroke: #ffffff; stroke-width: 1px; stroke-linecap: round; stroke-opacity: 0.65; font-size: 1.5em; font-weight: bold; stroke-linejoin: bevel; " x="73" y="217.47644566015515"></text><text class=" c3-text c3-text-1" text-anchor="middle" style="fill-opacity: 1; fill: #000000; stroke: #ffffff; stroke-width: 1px; stroke-linecap: round; stroke-opacity: 0.65; font-size: 1.5em; font-weight: bold; stroke-linejoin: bevel; " x="219" y="517.7566619915848">-606231</text><text class=" c3-text c3-text-2" text-anchor="middle" style="fill-opacity: 1; fill: #000000; stroke: #ffffff; stroke-width: 1px; stroke-linecap: round; stroke-opacity: 0.65; font-size: 1.5em; font-weight: bold; stroke-linejoin: bevel; " x="365" y="479.2378711275678">-524947</text><text class=" c3-text c3-text-3" text-anchor="middle" style="fill-opacity: 1; fill: #000000; stroke: #ffffff; stroke-width: 1px; stroke-linecap: round; stroke-opacity: 0.65; font-size: 1.5em; font-weight: bold; stroke-linejoin: bevel; " x="510" y="249.22642103189577">-39567</text><text class=" c3-text c3-text-4" text-anchor="middle" style="fill-opacity: 1; fill: #000000; stroke: #ffffff; stroke-width: 1px; stroke-linecap: round; stroke-opacity: 0.65; font-size: 1.5em; font-weight: bold; stroke-linejoin: bevel; " x="656" y="217.47644566015515">0</text></g></g><g class="c3-chart-text c3-target c3-target-EBITDA" style="pointer-events: none; opacity: 0.45835568513119535; "><g class=" c3-texts c3-texts-EBITDA"><text class=" c3-text c3-text-0" text-anchor="middle" style="fill-opacity: 1; fill: #000000; stroke: #ffffff; stroke-width: 1px; stroke-linecap: round; stroke-opacity: 0.65; font-size: 1.5em; font-weight: bold; stroke-linejoin: bevel; " x="102.19999999999999" y="217.47644566015515"></text><text class=" c3-text c3-text-1" text-anchor="middle" style="fill-opacity: 1; fill: #000000; stroke: #ffffff; stroke-width: 1px; stroke-linecap: round; stroke-opacity: 0.65; font-size: 1.5em; font-weight: bold; stroke-linejoin: bevel; " x="248.2" y="347.91601389825723">-247826</text><text class=" c3-text c3-text-2" text-anchor="middle" style="fill-opacity: 1; fill: #000000; stroke: #ffffff; stroke-width: 1px; stroke-linecap: round; stroke-opacity: 0.65; font-size: 1.5em; font-weight: bold; stroke-linejoin: bevel; " x="394.20000000000005" y="352.03781453473215">-256524</text><text class=" c3-text c3-text-3" text-anchor="middle" style="fill-opacity: 1; fill: #000000; stroke: #ffffff; stroke-width: 1px; stroke-linecap: round; stroke-opacity: 0.65; font-size: 1.5em; font-weight: bold; stroke-linejoin: bevel; " x="539.2" y="168.01341638507964">104379</text><text class=" c3-text c3-text-4" text-anchor="middle" style="fill-opacity: 1; fill: #000000; stroke: #ffffff; stroke-width: 1px; stroke-linecap: round; stroke-opacity: 0.65; font-size: 1.5em; font-weight: bold; stroke-linejoin: bevel; " x="685.2" y="217.47644566015515">0</text></g></g></g></g><g clip-path="url(file:///htdocs/ugmk/plugins/chart/export.html#c3-1485432649695-clip-grid)" class="c3-grid c3-grid-lines"><g class="c3-xgrid-lines"></g><g class="c3-ygrid-lines"></g></g><g class="c3-axis c3-axis-x" clip-path="url(file:///htdocs/ugmk/plugins/chart/export.html#c3-1485432649695-clip-xaxis)" transform="translate(0,566)" style="visibility: visible; opacity: 1; "><text class="c3-axis-x-label" transform="" style="text-anchor: end; " x="728" dx="-0.5em" dy="-0.5em"></text><g class="tick" style="opacity: 1; " transform="translate(73, 0)"><line y2="6" x1="73" x2="73"></line><text y="9" x="0" style="text-anchor: middle; display: block; " transform=""><tspan x="0" dy=".71em" dx="0">ТПФП 2014</tspan></text></g><g class="tick" style="opacity: 1; " transform="translate(219, 0)"><line y2="6" x1="73" x2="73"></line><text y="9" x="0" style="text-anchor: middle; display: block; " transform=""><tspan x="0" dy=".71em" dx="0">План пл 9 м</tspan></text></g><g class="tick" style="opacity: 1; " transform="translate(365, 0)"><line y2="6" x1="73" x2="73"></line><text y="9" x="0" style="text-anchor: middle; display: block; " transform=""><tspan x="0" dy=".71em" dx="0">Факт 9 мес</tspan></text></g><g class="tick" style="opacity: 1; " transform="translate(510, 0)"><line y2="6" x1="73" x2="73"></line><text y="9" x="0" style="text-anchor: middle; display: block; " transform=""><tspan x="0" dy=".71em" dx="0">Факт I пг</tspan></text></g><g class="tick" style="opacity: 1; " transform="translate(656, 0)"><line y2="0" x1="73" x2="73"></line><text y="9" x="0" style="text-anchor: middle; display: block; " transform=""><tspan x="0" dy=".71em" dx="0">Факт I кв</tspan></text></g><path class="domain" d="M0,6V0H728V6"></path></g><g class="c3-axis c3-axis-y" clip-path="url(file:///htdocs/ugmk/plugins/chart/export.html#c3-1485432649695-clip-yaxis)" transform="translate(0,0)" style="visibility: visible; opacity: 1; "><text class="c3-axis-y-label" transform="rotate(-90)" style="text-anchor: end; " x="0" dx="-0.5em" dy="1.2em"></text><g class="tick" style="opacity: 1; " transform="translate(0,505)"><line x2="-6"></line><text x="-9" y="0" style="text-anchor: end; "><tspan x="-9" dy="3">-600000</tspan></text></g><g class="tick" style="opacity: 1; " transform="translate(0,458)"><line x2="-6"></line><text x="-9" y="0" style="text-anchor: end; "><tspan x="-9" dy="3">-500000</tspan></text></g><g class="tick" style="opacity: 1; " transform="translate(0,411)"><line x2="-6"></line><text x="-9" y="0" style="text-anchor: end; "><tspan x="-9" dy="3">-400000</tspan></text></g><g class="tick" style="opacity: 1; " transform="translate(0,363)"><line x2="-6"></line><text x="-9" y="0" style="text-anchor: end; "><tspan x="-9" dy="3">-300000</tspan></text></g><g class="tick" style="opacity: 1; " transform="translate(0,316)"><line x2="-6"></line><text x="-9" y="0" style="text-anchor: end; "><tspan x="-9" dy="3">-200000</tspan></text></g><g class="tick" style="opacity: 1; " transform="translate(0,268)"><line x2="-6"></line><text x="-9" y="0" style="text-anchor: end; "><tspan x="-9" dy="3">-100000</tspan></text></g><g class="tick" style="opacity: 1; " transform="translate(0,221)"><line x2="-6"></line><text x="-9" y="0" style="text-anchor: end; "><tspan x="-9" dy="3">0</tspan></text></g><g class="tick" style="opacity: 1; " transform="translate(0,174)"><line x2="-6"></line><text x="-9" y="0" style="text-anchor: end; "><tspan x="-9" dy="3">100000</tspan></text></g><g class="tick" style="opacity: 1; " transform="translate(0,126)"><line x2="-6"></line><text x="-9" y="0" style="text-anchor: end; "><tspan x="-9" dy="3">200000</tspan></text></g><g class="tick" style="opacity: 1; " transform="translate(0,79)"><line x2="-6"></line><text x="-9" y="0" style="text-anchor: end; "><tspan x="-9" dy="3">300000</tspan></text></g><g class="tick" style="opacity: 1; " transform="translate(0,31)"><line x2="-6"></line><text x="-9" y="0" style="text-anchor: end; "><tspan x="-9" dy="3">400000</tspan></text></g><g class="tick" style="opacity: 1; " transform="translate(0,-16)"><line x2="-6"></line><text x="-9" y="0" style="text-anchor: end; "><tspan x="-9" dy="3">500000</tspan></text></g><g class="tick" style="opacity: 1; " transform="translate(0,-63)"><line x2="-6"></line><text x="-9" y="0" style="text-anchor: end; "><tspan x="-9" dy="3">600000</tspan></text></g><g class="tick" style="opacity: 1; " transform="translate(0,-111)"><line x2="-6"></line><text x="-9" y="0" style="text-anchor: end; "><tspan x="-9" dy="3">700000</tspan></text></g><g class="tick" style="opacity: 1; " transform="translate(0,-158)"><line x2="-6"></line><text x="-9" y="0" style="text-anchor: end; "><tspan x="-9" dy="3">800000</tspan></text></g><g class="tick" style="opacity: 1; " transform="translate(0,-206)"><line x2="-6"></line><text x="-9" y="0" style="text-anchor: end; "><tspan x="-9" dy="3">900000</tspan></text></g><g class="tick" style="opacity: 1; " transform="translate(0,-253)"><line x2="-6"></line><text x="-9" y="0" style="text-anchor: end; "><tspan x="-9" dy="3">1000000</tspan></text></g><g class="tick" style="opacity: 1; " transform="translate(0,-300)"><line x2="-6"></line><text x="-9" y="0" style="text-anchor: end; "><tspan x="-9" dy="3">1100000</tspan></text></g><g class="tick" style="opacity: 1; " transform="translate(0,-348)"><line x2="-6"></line><text x="-9" y="0" style="text-anchor: end; "><tspan x="-9" dy="3">1200000</tspan></text></g><g class="tick" style="opacity: 1; " transform="translate(0,-395)"><line x2="-6"></line><text x="-9" y="0" style="text-anchor: end; "><tspan x="-9" dy="3">1300000</tspan></text></g><g class="tick" style="opacity: 1; " transform="translate(0,-442)"><line x2="-6"></line><text x="-9" y="0" style="text-anchor: end; "><tspan x="-9" dy="3">1400000</tspan></text></g><g class="tick" style="opacity: 1; " transform="translate(0,-490)"><line x2="-6"></line><text x="-9" y="0" style="text-anchor: end; "><tspan x="-9" dy="3">1500000</tspan></text></g><g class="tick" style="opacity: 1; " transform="translate(0,-537)"><line x2="-6"></line><text x="-9" y="0" style="text-anchor: end; "><tspan x="-9" dy="3">1600000</tspan></text></g><g class="tick" style="opacity: 1; " transform="translate(0,-585)"><line x2="-6"></line><text x="-9" y="0" style="text-anchor: end; "><tspan x="-9" dy="3">1700000</tspan></text></g><g class="tick" style="opacity: 1; " transform="translate(0,-632)"><line x2="-6"></line><text x="-9" y="0" style="text-anchor: end; "><tspan x="-9" dy="3">1800000</tspan></text></g><g class="tick" style="opacity: 1; " transform="translate(0,-679)"><line x2="-6"></line><text x="-9" y="0" style="text-anchor: end; "><tspan x="-9" dy="3">1900000</tspan></text></g><g class="tick" style="opacity: 1; " transform="translate(0,-727)"><line x2="-6"></line><text x="-9" y="0" style="text-anchor: end; "><tspan x="-9" dy="3">2000000</tspan></text></g><g class="tick" style="opacity: 1; " transform="translate(0,-774)"><line x2="-6"></line><text x="-9" y="0" style="text-anchor: end; "><tspan x="-9" dy="3">2100000</tspan></text></g><g class="tick" style="opacity: 1; " transform="translate(0,-822)"><line x2="-6"></line><text x="-9" y="0" style="text-anchor: end; "><tspan x="-9" dy="3">2200000</tspan></text></g><g class="tick" style="opacity: 1; " transform="translate(0,-869)"><line x2="-6"></line><text x="-9" y="0" style="text-anchor: end; "><tspan x="-9" dy="3">2300000</tspan></text></g><g class="tick" style="opacity: 1; " transform="translate(0,-916)"><line x2="-6"></line><text x="-9" y="0" style="text-anchor: end; "><tspan x="-9" dy="3">2400000</tspan></text></g><g class="tick" style="opacity: 1; " transform="translate(0,-964)"><line x2="-6"></line><text x="-9" y="0" style="text-anchor: end; "><tspan x="-9" dy="3">2500000</tspan></text></g><g class="tick" style="opacity: 1; " transform="translate(0,-1011)"><line x2="-6"></line><text x="-9" y="0" style="text-anchor: end; "><tspan x="-9" dy="3">2600000</tspan></text></g><g class="tick" style="opacity: 1; " transform="translate(0,-1058)"><line x2="-6"></line><text x="-9" y="0" style="text-anchor: end; "><tspan x="-9" dy="3">2700000</tspan></text></g><g class="tick" style="opacity: 1; " transform="translate(0,-1106)"><line x2="-6"></line><text x="-9" y="0" style="text-anchor: end; "><tspan x="-9" dy="3">2800000</tspan></text></g><g class="tick" style="opacity: 1; " transform="translate(0,-1153)"><line x2="-6"></line><text x="-9" y="0" style="text-anchor: end; "><tspan x="-9" dy="3">2900000</tspan></text></g><g class="tick" style="opacity: 1; " transform="translate(0,-1201)"><line x2="-6"></line><text x="-9" y="0" style="text-anchor: end; "><tspan x="-9" dy="3">3000000</tspan></text></g><g class="tick" style="opacity: 1; " transform="translate(0,-1248)"><line x2="-6"></line><text x="-9" y="0" style="text-anchor: end; "><tspan x="-9" dy="3">3100000</tspan></text></g><g class="tick" style="opacity: 1; " transform="translate(0,-1295)"><line x2="-6"></line><text x="-9" y="0" style="text-anchor: end; "><tspan x="-9" dy="3">3200000</tspan></text></g><g class="tick" style="opacity: 1; " transform="translate(0,-1343)"><line x2="-6"></line><text x="-9" y="0" style="text-anchor: end; "><tspan x="-9" dy="3">3300000</tspan></text></g><g class="tick" style="opacity: 1; " transform="translate(0,-1390)"><line x2="-6"></line><text x="-9" y="0" style="text-anchor: end; "><tspan x="-9" dy="3">3400000</tspan></text></g><g class="tick" style="opacity: 1; " transform="translate(0,-1438)"><line x2="-6"></line><text x="-9" y="0" style="text-anchor: end; "><tspan x="-9" dy="3">3500000</tspan></text></g><g class="tick" style="opacity: 1; " transform="translate(0,-1485)"><line x2="-6"></line><text x="-9" y="0" style="text-anchor: end; "><tspan x="-9" dy="3">3600000</tspan></text></g><g class="tick" style="opacity: 1; " transform="translate(0,-1532)"><line x2="-6"></line><text x="-9" y="0" style="text-anchor: end; "><tspan x="-9" dy="3">3700000</tspan></text></g><g class="tick" style="opacity: 1; " transform="translate(0,-1580)"><line x2="-6"></line><text x="-9" y="0" style="text-anchor: end; "><tspan x="-9" dy="3">3800000</tspan></text></g><g class="tick" style="opacity: 1; " transform="translate(0,-1627)"><line x2="-6"></line><text x="-9" y="0" style="text-anchor: end; "><tspan x="-9" dy="3">3900000</tspan></text></g><g class="tick" style="opacity: 1; " transform="translate(0,-1675)"><line x2="-6"></line><text x="-9" y="0" style="text-anchor: end; "><tspan x="-9" dy="3">4000000</tspan></text></g><g class="tick" style="opacity: 1; " transform="translate(0,-1722)"><line x2="-6"></line><text x="-9" y="0" style="text-anchor: end; "><tspan x="-9" dy="3">4100000</tspan></text></g><g class="tick" style="opacity: 1; " transform="translate(0,-1769)"><line x2="-6"></line><text x="-9" y="0" style="text-anchor: end; "><tspan x="-9" dy="3">4200000</tspan></text></g><g class="tick" style="opacity: 1; " transform="translate(0,-1817)"><line x2="-6"></line><text x="-9" y="0" style="text-anchor: end; "><tspan x="-9" dy="3">4300000</tspan></text></g><g class="tick" style="opacity: 1; " transform="translate(0,-1864)"><line x2="-6"></line><text x="-9" y="0" style="text-anchor: end; "><tspan x="-9" dy="3">4400000</tspan></text></g><g class="tick" style="opacity: 1; " transform="translate(0,-1911)"><line x2="-6"></line><text x="-9" y="0" style="text-anchor: end; "><tspan x="-9" dy="3">4500000</tspan></text></g><g class="tick" style="opacity: 1; " transform="translate(0,-1959)"><line x2="-6"></line><text x="-9" y="0" style="text-anchor: end; "><tspan x="-9" dy="3">4600000</tspan></text></g><g class="tick" style="opacity: 1; " transform="translate(0,-2006)"><line x2="-6"></line><text x="-9" y="0" style="text-anchor: end; "><tspan x="-9" dy="3">4700000</tspan></text></g><g class="tick" style="opacity: 1; " transform="translate(0,-2054)"><line x2="-6"></line><text x="-9" y="0" style="text-anchor: end; "><tspan x="-9" dy="3">4800000</tspan></text></g><g class="tick" style="opacity: 1; " transform="translate(0,-2101)"><line x2="-6"></line><text x="-9" y="0" style="text-anchor: end; "><tspan x="-9" dy="3">4900000</tspan></text></g><g class="tick" style="opacity: 1; " transform="translate(0,-2148)"><line x2="-6"></line><text x="-9" y="0" style="text-anchor: end; "><tspan x="-9" dy="3">5000000</tspan></text></g><g class="tick" style="opacity: 1; " transform="translate(0,-2196)"><line x2="-6"></line><text x="-9" y="0" style="text-anchor: end; "><tspan x="-9" dy="3">5100000</tspan></text></g><g class="tick" style="opacity: 1; " transform="translate(0,-2243)"><line x2="-6"></line><text x="-9" y="0" style="text-anchor: end; "><tspan x="-9" dy="3">5200000</tspan></text></g><g class="tick" style="opacity: 1; " transform="translate(0,-2291)"><line x2="-6"></line><text x="-9" y="0" style="text-anchor: end; "><tspan x="-9" dy="3">5300000</tspan></text></g><g class="tick" style="opacity: 1; " transform="translate(0,-2338)"><line x2="-6"></line><text x="-9" y="0" style="text-anchor: end; "><tspan x="-9" dy="3">5400000</tspan></text></g><g class="tick" style="opacity: 1; " transform="translate(0,-2385)"><line x2="-6"></line><text x="-9" y="0" style="text-anchor: end; "><tspan x="-9" dy="3">5500000</tspan></text></g><g class="tick" style="opacity: 1; " transform="translate(0,-2433)"><line x2="-6"></line><text x="-9" y="0" style="text-anchor: end; "><tspan x="-9" dy="3">5600000</tspan></text></g><g class="tick" style="opacity: 1; " transform="translate(0,-2480)"><line x2="-6"></line><text x="-9" y="0" style="text-anchor: end; "><tspan x="-9" dy="3">5700000</tspan></text></g><g class="tick" style="opacity: 1; " transform="translate(0,-2528)"><line x2="-6"></line><text x="-9" y="0" style="text-anchor: end; "><tspan x="-9" dy="3">5800000</tspan></text></g><g class="tick" style="opacity: 1; " transform="translate(0,-2575)"><line x2="-6"></line><text x="-9" y="0" style="text-anchor: end; "><tspan x="-9" dy="3">5900000</tspan></text></g><g class="tick" style="opacity: 1; " transform="translate(0,-2622)"><line x2="-6"></line><text x="-9" y="0" style="text-anchor: end; "><tspan x="-9" dy="3">6000000</tspan></text></g><g class="tick" style="opacity: 1; " transform="translate(0,-2670)"><line x2="-6"></line><text x="-9" y="0" style="text-anchor: end; "><tspan x="-9" dy="3">6100000</tspan></text></g><g class="tick" style="opacity: 1; " transform="translate(0,-2717)"><line x2="-6"></line><text x="-9" y="0" style="text-anchor: end; "><tspan x="-9" dy="3">6200000</tspan></text></g><g class="tick" style="opacity: 1; " transform="translate(0,-2764)"><line x2="-6"></line><text x="-9" y="0" style="text-anchor: end; "><tspan x="-9" dy="3">6300000</tspan></text></g><g class="tick" style="opacity: 1; " transform="translate(0,-2812)"><line x2="-6"></line><text x="-9" y="0" style="text-anchor: end; "><tspan x="-9" dy="3">6400000</tspan></text></g><g class="tick" style="opacity: 1; " transform="translate(0,-2859)"><line x2="-6"></line><text x="-9" y="0" style="text-anchor: end; "><tspan x="-9" dy="3">6500000</tspan></text></g><g class="tick" style="opacity: 1; " transform="translate(0,-2907)"><line x2="-6"></line><text x="-9" y="0" style="text-anchor: end; "><tspan x="-9" dy="3">6600000</tspan></text></g><g class="tick" style="opacity: 1; " transform="translate(0,-2954)"><line x2="-6"></line><text x="-9" y="0" style="text-anchor: end; "><tspan x="-9" dy="3">6700000</tspan></text></g><g class="tick" style="opacity: 1; " transform="translate(0,-3001)"><line x2="-6"></line><text x="-9" y="0" style="text-anchor: end; "><tspan x="-9" dy="3">6800000</tspan></text></g><g class="tick" style="opacity: 1; " transform="translate(0,-3049)"><line x2="-6"></line><text x="-9" y="0" style="text-anchor: end; "><tspan x="-9" dy="3">6900000</tspan></text></g><g class="tick" style="opacity: 1; " transform="translate(0,-3096)"><line x2="-6"></line><text x="-9" y="0" style="text-anchor: end; "><tspan x="-9" dy="3">7000000</tspan></text></g><g class="tick" style="opacity: 1; " transform="translate(0,-3144)"><line x2="-6"></line><text x="-9" y="0" style="text-anchor: end; "><tspan x="-9" dy="3">7100000</tspan></text></g><g class="tick" style="opacity: 1; " transform="translate(0,-3191)"><line x2="-6"></line><text x="-9" y="0" style="text-anchor: end; "><tspan x="-9" dy="3">7200000</tspan></text></g><g class="tick" style="opacity: 1; " transform="translate(0,-3238)"><line x2="-6"></line><text x="-9" y="0" style="text-anchor: end; "><tspan x="-9" dy="3">7300000</tspan></text></g><g class="tick" style="opacity: 1; " transform="translate(0,-3286)"><line x2="-6"></line><text x="-9" y="0" style="text-anchor: end; "><tspan x="-9" dy="3">7400000</tspan></text></g><g class="tick" style="opacity: 1; " transform="translate(0,-3333)"><line x2="-6"></line><text x="-9" y="0" style="text-anchor: end; "><tspan x="-9" dy="3">7500000</tspan></text></g><g class="tick" style="opacity: 1; " transform="translate(0,-3381)"><line x2="-6"></line><text x="-9" y="0" style="text-anchor: end; "><tspan x="-9" dy="3">7600000</tspan></text></g><g class="tick" style="opacity: 1; " transform="translate(0,-3428)"><line x2="-6"></line><text x="-9" y="0" style="text-anchor: end; "><tspan x="-9" dy="3">7700000</tspan></text></g><g class="tick" style="opacity: 1; " transform="translate(0,-3475)"><line x2="-6"></line><text x="-9" y="0" style="text-anchor: end; "><tspan x="-9" dy="3">7800000</tspan></text></g><g class="tick" style="opacity: 1; " transform="translate(0,-3523)"><line x2="-6"></line><text x="-9" y="0" style="text-anchor: end; "><tspan x="-9" dy="3">7900000</tspan></text></g><g class="tick" style="opacity: 1; " transform="translate(0,-3570)"><line x2="-6"></line><text x="-9" y="0" style="text-anchor: end; "><tspan x="-9" dy="3">8000000</tspan></text></g><g class="tick" style="opacity: 1; " transform="translate(0,-3617)"><line x2="-6"></line><text x="-9" y="0" style="text-anchor: end; "><tspan x="-9" dy="3">8100000</tspan></text></g><g class="tick" style="opacity: 1; " transform="translate(0,-3665)"><line x2="-6"></line><text x="-9" y="0" style="text-anchor: end; "><tspan x="-9" dy="3">8200000</tspan></text></g><g class="tick" style="opacity: 1; " transform="translate(0,-3712)"><line x2="-6"></line><text x="-9" y="0" style="text-anchor: end; "><tspan x="-9" dy="3">8300000</tspan></text></g><g class="tick" style="opacity: 1; " transform="translate(0,-3760)"><line x2="-6"></line><text x="-9" y="0" style="text-anchor: end; "><tspan x="-9" dy="3">8400000</tspan></text></g><g class="tick" style="opacity: 1; " transform="translate(0,-3807)"><line x2="-6"></line><text x="-9" y="0" style="text-anchor: end; "><tspan x="-9" dy="3">8500000</tspan></text></g><g class="tick" style="opacity: 1; " transform="translate(0,-3854)"><line x2="-6"></line><text x="-9" y="0" style="text-anchor: end; "><tspan x="-9" dy="3">8600000</tspan></text></g><g class="tick" style="opacity: 1; " transform="translate(0,-3902)"><line x2="-6"></line><text x="-9" y="0" style="text-anchor: end; "><tspan x="-9" dy="3">8700000</tspan></text></g><g class="tick" style="opacity: 1; " transform="translate(0,-3949)"><line x2="-6"></line><text x="-9" y="0" style="text-anchor: end; "><tspan x="-9" dy="3">8800000</tspan></text></g><g class="tick" style="opacity: 1; " transform="translate(0,-3997)"><line x2="-6"></line><text x="-9" y="0" style="text-anchor: end; "><tspan x="-9" dy="3">8900000</tspan></text></g><g class="tick" style="opacity: 1; " transform="translate(0,-4044)"><line x2="-6"></line><text x="-9" y="0" style="text-anchor: end; "><tspan x="-9" dy="3">9000000</tspan></text></g><g class="tick" style="opacity: 1; " transform="translate(0,-4091)"><line x2="-6"></line><text x="-9" y="0" style="text-anchor: end; "><tspan x="-9" dy="3">9100000</tspan></text></g><g class="tick" style="opacity: 1; " transform="translate(0,-4139)"><line x2="-6"></line><text x="-9" y="0" style="text-anchor: end; "><tspan x="-9" dy="3">9200000</tspan></text></g><g class="tick" style="opacity: 1; " transform="translate(0,-4186)"><line x2="-6"></line><text x="-9" y="0" style="text-anchor: end; "><tspan x="-9" dy="3">9300000</tspan></text></g><path class="domain" d="M-6,1H0V566H-6"></path></g><g class="c3-axis c3-axis-y2" transform="translate(728,0)" style="visibility: hidden; opacity: 1; "><text class="c3-axis-y2-label" transform="rotate(-90)" style="text-anchor: end; " x="0" dx="-0.5em" dy="-0.5em"></text><g class="tick" style="opacity: 1; " transform="translate(0,566)"><line x2="6" y2="0"></line><text x="9" y="0" style="text-anchor: start; "><tspan x="9" dy="3">0</tspan></text></g><g class="tick" style="opacity: 1; " transform="translate(0,510)"><line x2="6" y2="0"></line><text x="9" y="0" style="text-anchor: start; "><tspan x="9" dy="3">0.1</tspan></text></g><g class="tick" style="opacity: 1; " transform="translate(0,453)"><line x2="6" y2="0"></line><text x="9" y="0" style="text-anchor: start; "><tspan x="9" dy="3">0.2</tspan></text></g><g class="tick" style="opacity: 1; " transform="translate(0,397)"><line x2="6" y2="0"></line><text x="9" y="0" style="text-anchor: start; "><tspan x="9" dy="3">0.3</tspan></text></g><g class="tick" style="opacity: 1; " transform="translate(0,340)"><line x2="6" y2="0"></line><text x="9" y="0" style="text-anchor: start; "><tspan x="9" dy="3">0.4</tspan></text></g><g class="tick" style="opacity: 1; " transform="translate(0,284)"><line x2="6" y2="0"></line><text x="9" y="0" style="text-anchor: start; "><tspan x="9" dy="3">0.5</tspan></text></g><g class="tick" style="opacity: 1; " transform="translate(0,227)"><line x2="6" y2="0"></line><text x="9" y="0" style="text-anchor: start; "><tspan x="9" dy="3">0.6</tspan></text></g><g class="tick" style="opacity: 1; " transform="translate(0,171)"><line x2="6" y2="0"></line><text x="9" y="0" style="text-anchor: start; "><tspan x="9" dy="3">0.7</tspan></text></g><g class="tick" style="opacity: 1; " transform="translate(0,114)"><line x2="6" y2="0"></line><text x="9" y="0" style="text-anchor: start; "><tspan x="9" dy="3">0.8</tspan></text></g><g class="tick" style="opacity: 1; " transform="translate(0,58)"><line x2="6" y2="0"></line><text x="9" y="0" style="text-anchor: start; "><tspan x="9" dy="3">0.9</tspan></text></g><g class="tick" style="opacity: 1; " transform="translate(0,1)"><line x2="6" y2="0"></line><text x="9" y="0" style="text-anchor: start; "><tspan x="9" dy="3">1</tspan></text></g><path class="domain" d="M6,1H0V566H6"></path></g></g><g transform="translate(20.5,600.5)" style="visibility: hidden; "><g clip-path="url(file:///htdocs/ugmk/plugins/chart/export.html#c3-1485432649695-clip-subchart)" class="c3-chart"><g class="c3-chart-bars"></g><g class="c3-chart-lines"></g></g><g clip-path="url(file:///htdocs/ugmk/plugins/chart/export.html#c3-1485432649695-clip)" class="c3-brush" style="pointer-events: all; "><rect class="background" style="visibility: hidden; cursor: crosshair; " x="0" width="778"></rect><rect class="extent" style="cursor: move; " x="0" width="0"></rect><g class="resize e" style="cursor: ew-resize; display: none; " transform="translate(0,0)"><rect x="-3" width="6" height="6" style="visibility: hidden; "></rect></g><g class="resize w" style="cursor: ew-resize; display: none; " transform="translate(0,0)"><rect x="-3" width="6" height="6" style="visibility: hidden; "></rect></g></g><g class="c3-axis-x" transform="translate(0,0)" clip-path="url(file:///htdocs/ugmk/plugins/chart/export.html#c3-1485432649695-clip-xaxis)" style="visibility: hidden; opacity: 1; "><g class="tick" style="opacity: 1; " transform="translate(73, 0)"><line y2="6" x1="73" x2="73"></line><text y="9" x="0" style="text-anchor: middle; display: block; " transform=""><tspan x="0" dy=".71em" dx="0">ТПФП 2014</tspan></text></g><g class="tick" style="opacity: 1; " transform="translate(219, 0)"><line y2="6" x1="73" x2="73"></line><text y="9" x="0" style="text-anchor: middle; display: block; " transform=""><tspan x="0" dy=".71em" dx="0">План пл 9 м</tspan></text></g><g class="tick" style="opacity: 1; " transform="translate(365, 0)"><line y2="6" x1="73" x2="73"></line><text y="9" x="0" style="text-anchor: middle; display: block; " transform=""><tspan x="0" dy=".71em" dx="0">Факт 9 мес</tspan></text></g><g class="tick" style="opacity: 1; " transform="translate(510, 0)"><line y2="6" x1="73" x2="73"></line><text y="9" x="0" style="text-anchor: middle; display: block; " transform=""><tspan x="0" dy=".71em" dx="0">Факт I пг</tspan></text></g><g class="tick" style="opacity: 1; " transform="translate(656, 0)"><line y2="0" x1="73" x2="73"></line><text y="9" x="0" style="text-anchor: middle; display: block; " transform=""><tspan x="0" dy=".71em" dx="0">Факт I кв</tspan></text></g><path class="domain" d="M0,6V0H728V6"></path></g></g><g transform="translate(80.5,5.5)"><g class="c3-legend-background"><rect height="68" width="168"></rect></g><g class="c3-legend-item c3-legend-item-Прибыль-от-продаж" style="visibility: visible; cursor: pointer; "><text style="pointer-events: none; " x="24" y="19">Прибыль от продаж</text><rect class="c3-legend-item-event" style="fill-opacity: 0; " x="10" y="5" width="158" height="19"></rect><line class="c3-legend-item-tile" style="pointer-events: none; stroke: #f6bb42; " x1="8" y1="14" x2="18" y2="14" stroke-width="10"></line></g><g class="c3-legend-item c3-legend-item-Чистая-прибыль" style="visibility: visible; cursor: pointer; "><text style="pointer-events: none; " x="24" y="38">Чистая прибыль</text><rect class="c3-legend-item-event" style="fill-opacity: 0; " x="10" y="24" width="131" height="19"></rect><line class="c3-legend-item-tile" style="pointer-events: none; stroke: #a0d468; " x1="8" y1="33" x2="18" y2="33" stroke-width="10"></line></g><g class="c3-legend-item c3-legend-item-EBITDA" style="visibility: visible; cursor: pointer; "><text style="pointer-events: none; " x="24" y="57">EBITDA</text><rect class="c3-legend-item-event" style="fill-opacity: 0; " x="10" y="43" width="68" height="19"></rect><line class="c3-legend-item-tile" style="pointer-events: none; stroke: #4fc1e9; " x1="8" y1="52" x2="18" y2="52" stroke-width="10"></line></g></g><text class="c3-title" x="400" y="0"></text></svg>